<?xml version="1.0" encoding="UTF-8"?>
<svg id="Layer_2" data-name="Layer 2" xmlns="http://www.w3.org/2000/svg" xmlns:xlink="http://www.w3.org/1999/xlink" viewBox="0 0 7.83 6.21">
  <defs>
    <style>
      .cls-1 {
        fill: url(#linear-gradient-2);
      }

      .cls-2 {
        fill: url(#linear-gradient-6);
      }

      .cls-3 {
        fill: url(#linear-gradient-5);
      }

      .cls-4 {
        fill: url(#linear-gradient-7);
      }

      .cls-5 {
        fill: url(#linear-gradient-3);
      }

      .cls-6 {
        fill: url(#linear-gradient);
      }

      .cls-7 {
        fill: url(#linear-gradient-4);
      }
    </style>
    <linearGradient id="linear-gradient" x1="2.69" y1=".58" x2="6.59" y2="3.95" gradientUnits="userSpaceOnUse">
      <stop offset="0" stop-color="#fab300"/>
      <stop offset="1" stop-color="#f6db00"/>
    </linearGradient>
    <linearGradient id="linear-gradient-2" x1="3.58" y1="-.45" x2="7.48" y2="2.91" xlink:href="#linear-gradient"/>
    <linearGradient id="linear-gradient-3" x1="3.4" y1="-.24" x2="7.3" y2="3.12" xlink:href="#linear-gradient"/>
    <linearGradient id="linear-gradient-4" x1="4" y1="-.94" x2="7.9" y2="2.43" xlink:href="#linear-gradient"/>
    <linearGradient id="linear-gradient-5" x1="2.14" y1="1.22" x2="6.04" y2="4.58" xlink:href="#linear-gradient"/>
    <linearGradient id="linear-gradient-6" x1="2.4" y1=".92" x2="6.29" y2="4.29" xlink:href="#linear-gradient"/>
    <linearGradient id="linear-gradient-7" x1="0" y1="4.37" x2="5.79" y2="4.37" gradientUnits="userSpaceOnUse">
      <stop offset="0" stop-color="#437aff"/>
      <stop offset="1" stop-color="#67a4fe"/>
    </linearGradient>
  </defs>
  <g id="Layer_1-2" data-name="Layer 1">
    <g>
      <g>
        <path class="cls-6" d="m6.45,3.15c0,.5-.21.95-.54,1.28-.16-.2-.4-.33-.7-.33.16-.8-.68-1.42-1.38-1.05-.11-.35-.36-.63-.69-.78.31-.53.88-.89,1.54-.89.98,0,1.77.79,1.77,1.77Z"/>
        <path class="cls-1" d="m4.68.99c-.11,0-.2-.09-.2-.2V.2c0-.11.09-.2.2-.2s.2.09.2.2v.59c0,.11-.09.2-.2.2Z"/>
        <path class="cls-5" d="m7.64,3.35h-.59c-.11,0-.2-.09-.2-.2s.09-.2.2-.2h.59c.11,0,.2.09.2.2s-.09.2-.2.2Z"/>
        <path class="cls-7" d="m6.35,1.68c-.17,0-.26-.21-.14-.34l.42-.42c.08-.08.2-.08.28,0,.08.08.08.2,0,.28l-.42.42s-.09.06-.14.06h0Z"/>
        <path class="cls-3" d="m6.77,5.44c-.05,0-.1-.02-.14-.06l-.42-.42c-.08-.08-.08-.2,0-.28.08-.08.2-.08.28,0l.42.42c.12.12.03.34-.14.34h0Z"/>
        <path class="cls-2" d="m3.01,1.68c-.05,0-.1-.02-.14-.06l-.42-.42c-.08-.08-.08-.2,0-.28.08-.08.2-.08.28,0l.42.42c.12.12.03.34-.14.34Z"/>
      </g>
      <path class="cls-4" d="m4.9,4.48c.16-.8-.68-1.42-1.39-1.05-.16-.51-.63-.89-1.2-.89-.73,0-1.31.63-1.25,1.37-.6.05-1.07.55-1.07,1.15s.52,1.16,1.16,1.16h3.76c.48,0,.87-.39.87-.87s-.36-.87-.89-.87Z"/>
    </g>
  </g>
</svg>