<?xml version="1.0" encoding="UTF-8"?>
<svg id="Layer_2" data-name="Layer 2" xmlns="http://www.w3.org/2000/svg" xmlns:xlink="http://www.w3.org/1999/xlink" viewBox="0 0 5.69 5.69">
  <defs>
    <style>
      .cls-1 {
        fill: url(#linear-gradient-2);
      }

      .cls-2 {
        fill: url(#linear-gradient-6);
      }

      .cls-3 {
        fill: url(#linear-gradient-5);
      }

      .cls-4 {
        fill: url(#linear-gradient-7);
      }

      .cls-5 {
        fill: url(#linear-gradient-9);
      }

      .cls-6 {
        fill: url(#linear-gradient-3);
      }

      .cls-7 {
        fill: url(#linear-gradient);
      }

      .cls-8 {
        fill: url(#linear-gradient-4);
      }

      .cls-9 {
        fill: url(#linear-gradient-8);
      }
    </style>
    <linearGradient id="linear-gradient" x1="1.15" y1=".21" x2="4.08" y2="4.76" gradientUnits="userSpaceOnUse">
      <stop offset="0" stop-color="#fab300"/>
      <stop offset="1" stop-color="#f6db00"/>
    </linearGradient>
    <linearGradient id="linear-gradient-2" x1="2.24" y1="-.5" x2="5.17" y2="4.06" xlink:href="#linear-gradient"/>
    <linearGradient id="linear-gradient-3" x1=".06" y1=".91" x2="2.99" y2="5.47" xlink:href="#linear-gradient"/>
    <linearGradient id="linear-gradient-4" x1="2.85" y1="-.89" x2="5.78" y2="3.67" xlink:href="#linear-gradient"/>
    <linearGradient id="linear-gradient-5" x1="-.55" y1="1.3" x2="2.38" y2="5.85" xlink:href="#linear-gradient"/>
    <linearGradient id="linear-gradient-6" x1="3.12" y1="-1.07" x2="6.05" y2="3.49" xlink:href="#linear-gradient"/>
    <linearGradient id="linear-gradient-7" x1="-.83" y1="1.47" x2="2.1" y2="6.03" xlink:href="#linear-gradient"/>
    <linearGradient id="linear-gradient-8" x1="1.58" y1="-.07" x2="4.51" y2="4.49" xlink:href="#linear-gradient"/>
    <linearGradient id="linear-gradient-9" x1=".72" y1=".48" x2="3.65" y2="5.04" xlink:href="#linear-gradient"/>
  </defs>
  <g id="Layer_1-2" data-name="Layer 1">
    <g>
      <path class="cls-7" d="m2.85,1.25c-.88,0-1.6.72-1.6,1.6s.72,1.6,1.6,1.6,1.6-.72,1.6-1.6-.72-1.6-1.6-1.6Z"/>
      <path class="cls-1" d="m2.85.89c.1,0,.18-.08.18-.18V.18c0-.1-.08-.18-.18-.18s-.18.08-.18.18v.53c0,.1.08.18.18.18Z"/>
      <path class="cls-6" d="m2.85,4.81c-.1,0-.18.08-.18.18v.53c0,.1.08.18.18.18s.18-.08.18-.18v-.53c0-.1-.08-.18-.18-.18Z"/>
      <path class="cls-8" d="m5.52,2.67h-.53c-.1,0-.18.08-.18.18s.08.18.18.18h.53c.1,0,.18-.08.18-.18s-.08-.18-.18-.18Z"/>
      <path class="cls-3" d="m.89,2.85c0-.1-.08-.18-.18-.18H.18c-.1,0-.18.08-.18.18s.08.18.18.18h.53c.1,0,.18-.08.18-.18Z"/>
      <path class="cls-2" d="m4.36,1.52s.09-.02.13-.05l.38-.38c.07-.07.07-.18,0-.25-.07-.07-.18-.07-.25,0l-.38.38c-.11.11-.03.3.13.3Z"/>
      <path class="cls-4" d="m1.21,4.23l-.38.38c-.11.11-.03.3.13.3.05,0,.09-.02.13-.05l.38-.38c.07-.07.07-.18,0-.25-.07-.07-.18-.07-.25,0Z"/>
      <path class="cls-9" d="m4.48,4.23c-.07-.07-.18-.07-.25,0-.07.07-.07.18,0,.25l.38.38s.08.05.13.05c.16,0,.24-.19.13-.3l-.38-.38Z"/>
      <path class="cls-5" d="m1.21,1.46s.08.05.13.05c.16,0,.24-.19.13-.3l-.38-.38c-.07-.07-.18-.07-.25,0-.07.07-.07.18,0,.25l.38.38Z"/>
    </g>
  </g>
</svg>