<?xml version="1.0" encoding="UTF-8"?>
<svg id="Layer_2" data-name="Layer 2" xmlns="http://www.w3.org/2000/svg" xmlns:xlink="http://www.w3.org/1999/xlink" viewBox="0 0 5.79 5.68">
  <defs>
    <style>
      .cls-1 {
        fill: url(#linear-gradient-2);
      }

      .cls-2 {
        fill: url(#linear-gradient);
      }
    </style>
    <linearGradient id="linear-gradient" x1="0" y1="1.84" x2="5.79" y2="1.84" gradientUnits="userSpaceOnUse">
      <stop offset="0" stop-color="#437aff"/>
      <stop offset="1" stop-color="#67a4fe"/>
    </linearGradient>
    <linearGradient id="linear-gradient-2" x1="1.21" y1="3.76" x2="4.11" y2="3.76" gradientUnits="userSpaceOnUse">
      <stop offset="0" stop-color="#fab300"/>
      <stop offset="1" stop-color="#f6db00"/>
    </linearGradient>
  </defs>
  <g id="Layer_1-2" data-name="Layer 1">
    <g>
      <path class="cls-2" d="m4.9,1.94c.16-.8-.68-1.42-1.39-1.05-.16-.51-.63-.89-1.2-.89-.73,0-1.31.63-1.25,1.37-.6.05-1.07.55-1.07,1.15s.52,1.16,1.16,1.16h3.76c.48,0,.87-.39.87-.87s-.36-.87-.89-.87Z"/>
      <polygon class="cls-1" points="4.11 3.05 2.8 3.05 3.5 1.84 1.91 1.84 1.21 3.84 2.34 3.84 1.84 5.68 4.11 3.05"/>
    </g>
  </g>
</svg>